<?xml version="1.0" standalone="no"?>
<!DOCTYPE svg PUBLIC "-//W3C//DTD SVG 20010904//EN"
 "http://www.w3.org/TR/2001/REC-SVG-20010904/DTD/svg10.dtd">
<svg version="1.0" xmlns="http://www.w3.org/2000/svg"
 width="260.000000pt" height="260.000000pt" viewBox="0 0 260.000000 260.000000"
 preserveAspectRatio="xMidYMid meet">
<metadata>
Created by potrace 1.14, written by Peter Selinger 2001-2017
</metadata>
<g transform="translate(0.000000,260.000000) scale(0.100000,-0.100000)"
fill="#000000" stroke="none">
<path d="M0 2085 l0 -515 28 0 c15 0 33 -5 39 -11 5 -5 22 -11 37 -13 16 -2
32 -9 37 -17 6 -10 11 -11 17 -3 4 6 22 15 40 19 25 5 32 3 32 -9 0 -11 -10
-16 -34 -16 -18 0 -39 -7 -46 -15 -7 -8 -21 -15 -31 -15 -12 0 -19 -7 -19 -20
0 -11 -5 -20 -11 -20 -13 0 -1 42 15 52 6 4 -1 11 -17 17 -15 6 -27 15 -27 21
0 5 -13 10 -30 10 l-30 0 0 -115 c0 -104 2 -115 18 -115 28 0 29 -60 2 -67
-19 -5 -20 -12 -18 -117 l3 -111 30 -5 30 -6 -28 -7 c-22 -6 -27 -12 -22 -27
4 -12 2 -20 -4 -20 -15 0 -14 -43 1 -58 9 -9 9 -12 0 -12 -9 0 -12 -106 -12
-445 l0 -445 278 1 c155 0 268 4 257 8 -11 5 -32 7 -46 6 -22 -3 -24 0 -21 29
3 24 12 38 35 51 18 11 39 19 47 20 8 0 41 4 72 9 66 9 103 3 112 -19 4 -11
-3 -19 -20 -25 -22 -9 -24 -13 -14 -25 7 -8 10 -24 7 -36 -5 -17 -3 -18 10 -7
13 10 17 10 20 1 4 -10 208 -13 934 -13 l929 0 0 878 c0 861 -3 942 -31 942
-5 0 -9 5 -9 11 0 6 9 8 20 4 20 -6 20 -2 20 379 l0 386 -1300 0 -1300 0 0
-515z m1695 444 c10 -15 -1 -23 -20 -15 -9 3 -13 10 -10 16 8 13 22 13 30 -1z
m-846 -433 c9 -11 8 -22 -5 -49 -14 -28 -24 -37 -48 -39 -23 -2 -32 -9 -34
-25 -2 -13 -7 -23 -12 -23 -4 0 -10 -8 -13 -19 -7 -27 -65 -34 -97 -12 -33 24
-36 45 -10 78 16 20 18 29 9 32 -18 6 89 40 129 40 19 1 35 7 38 16 8 19 28
19 43 1z m856 -173 l375 -186 0 -476 0 -476 -375 -188 c-206 -103 -380 -187
-385 -187 -6 0 -179 84 -385 187 l-375 187 0 476 0 476 373 187 c204 103 378
187 385 187 7 0 181 -84 387 -187z m862 72 c9 -3 8 -12 -4 -37 -9 -18 -19 -40
-23 -48 -13 -27 -35 -21 -51 13 -17 37 -15 57 7 57 8 0 11 6 7 16 -5 15 13 14
64 -1z m-313 -94 c12 -11 29 -21 37 -21 8 0 20 -9 27 -20 7 -11 19 -20 27 -20
17 0 20 -16 5 -25 -6 -4 -8 -11 -4 -16 3 -5 10 -6 16 -3 6 4 9 1 6 -7 -2 -8
-20 -19 -38 -25 -32 -11 -63 -54 -39 -54 7 0 9 -10 5 -27 -4 -16 -8 -36 -9
-45 -1 -10 -7 -18 -14 -18 -7 0 -10 -7 -7 -15 3 -8 -2 -22 -11 -32 -16 -16
-16 -17 5 -25 29 -11 20 -33 -15 -33 -19 0 -33 8 -43 25 -9 14 -12 21 -7 17
13 -11 33 31 27 58 -2 14 -16 28 -33 35 -16 7 -29 16 -29 21 0 4 -9 11 -21 14
-17 6 -20 13 -16 35 4 19 1 33 -12 44 -12 11 -17 29 -16 54 2 45 -9 61 -38 56
l-22 -5 23 12 c12 7 22 18 22 25 0 16 32 27 54 18 9 -3 16 -2 16 4 0 16 79 -4
104 -27z m284 -69 c3 -16 -2 -22 -16 -22 -19 0 -36 32 -24 45 13 12 37 -1 40
-23z m-188 -136 c0 -11 -19 -15 -25 -6 -3 5 1 10 9 10 9 0 16 -2 16 -4z
m-1919 -99 c-13 -13 -26 -3 -16 12 3 6 11 8 17 5 6 -4 6 -10 -1 -17z m-73 -37
c2 -6 19 -10 38 -10 38 0 41 -7 19 -36 -33 -44 1 -101 52 -88 15 4 31 0 42
-10 18 -16 19 -35 14 -335 l-4 -318 30 -12 c47 -20 52 -71 8 -71 -14 0 -18 -3
-11 -10 7 -7 22 -6 47 5 50 21 84 19 97 -5 6 -10 16 -17 24 -14 8 3 53 -15
102 -39 l88 -44 -27 -18 c-21 -14 -30 -15 -41 -6 -12 10 -19 8 -35 -8 -16 -16
-17 -20 -5 -25 9 -3 12 -10 9 -16 -3 -5 2 -10 12 -11 16 0 16 -1 -2 -9 -20 -9
-7 -15 23 -11 8 1 20 -3 28 -10 10 -8 17 -9 28 0 10 9 16 7 26 -5 8 -8 21 -13
31 -11 12 3 15 0 12 -14 -6 -22 -19 -25 -26 -6 -8 22 -28 -8 -31 -47 -3 -36
10 -49 20 -21 9 23 51 19 57 -5 3 -11 1 -20 -5 -20 -5 0 -7 -9 -3 -19 3 -11 1
-22 -5 -26 -6 -4 -8 -15 -5 -26 4 -13 2 -19 -9 -19 -10 0 -15 -7 -13 -19 1
-11 -2 -19 -8 -18 -5 1 -10 9 -10 17 0 10 -12 16 -37 18 -22 2 -38 -1 -38 -7
0 -6 -12 -11 -27 -10 -25 0 -26 1 -8 9 12 4 27 15 34 24 12 14 11 20 -9 41
-13 14 -35 25 -49 25 -14 0 -37 9 -51 20 -25 20 -80 27 -80 11 0 -5 7 -14 15
-21 8 -7 15 -16 15 -21 0 -15 -30 -10 -37 6 -3 11 -17 15 -42 15 -62 -2 -103
8 -118 29 -8 12 -21 21 -29 21 -8 0 -14 4 -14 9 0 5 -16 19 -36 32 -26 16 -38
19 -43 10 -11 -18 -54 -23 -47 -6 3 9 -8 22 -28 35 -28 17 -35 28 -41 67 -7
46 2 62 33 63 19 0 14 21 -12 45 -20 19 -22 24 -10 40 24 33 17 63 -19 80 -58
28 -69 40 -61 70 6 24 10 26 38 20 17 -3 40 -7 52 -9 11 -1 35 -12 51 -24 36
-26 49 -27 69 -8 16 17 19 30 4 21 -6 -3 -10 -2 -10 4 0 5 -9 13 -20 16 -30
10 -26 43 6 43 16 0 23 -5 21 -13 -3 -6 -2 -17 2 -24 10 -15 34 12 36 39 2 18
-32 34 -74 35 -8 0 -21 14 -30 32 -16 30 -25 35 -121 63 -36 10 -34 44 3 48
15 2 27 7 27 12 0 5 8 6 17 3 12 -5 15 -2 10 10 -5 13 -1 17 14 17 16 0 18 4
11 16 -13 23 -4 52 19 59 22 7 25 44 7 65 -7 8 -4 7 8 -3 24 -20 50 -22 51 -4
0 6 2 18 4 25 2 8 -7 20 -21 29 -17 11 -20 11 -8 1 11 -10 14 -19 7 -29 -7
-11 -9 -11 -9 0 0 8 -7 11 -20 8 -11 -3 -30 3 -44 14 -13 10 -31 19 -38 19 -8
0 -15 6 -15 13 0 6 -4 20 -8 30 -6 15 -4 18 13 15 12 -1 21 1 21 6 -1 5 5 13
13 17 7 5 8 9 2 9 -6 0 -11 7 -11 15 0 10 8 13 24 11 13 -3 23 0 23 5 0 5 -10
9 -23 9 -20 0 -23 4 -19 34 3 25 10 36 25 40 22 6 22 6 2 18 -29 16 -29 16
-14 34 14 17 71 13 77 -6z m152 -100 c0 -5 -5 -10 -11 -10 -5 0 -7 5 -4 10 3
6 8 10 11 10 2 0 4 -4 4 -10z m-376 -139 c3 -5 -1 -14 -9 -21 -13 -10 -15 -9
-15 9 0 21 14 28 24 12z m2186 -41 c0 -5 -5 -10 -11 -10 -5 0 -7 5 -4 10 3 6
8 10 11 10 2 0 4 -4 4 -10z m-2000 -79 c-1 -13 -29 45 -29 59 0 8 6 0 14 -19
8 -18 15 -36 15 -40z m2088 -122 c2 -20 -2 -25 -22 -27 -18 -1 -24 2 -21 13 3
8 7 22 10 31 7 23 30 12 33 -17z m-152 -32 c5 -1 9 -10 8 -19 0 -11 7 -18 18
-18 11 0 18 -7 18 -20 0 -26 -29 -38 -44 -19 -6 8 -20 14 -31 14 -15 0 -19 6
-18 23 2 12 -2 22 -7 22 -18 0 -10 15 13 25 12 6 25 7 28 2 3 -5 10 -9 15 -10z
m134 -47 c-9 -6 -10 -10 -3 -10 6 0 15 5 18 10 9 15 41 12 55 -5 20 -24 -5
-46 -49 -42 -29 2 -37 7 -39 26 -3 22 16 46 27 35 3 -3 -1 -9 -9 -14z m-2325
-10 c-3 -5 -10 -10 -16 -10 -5 0 -9 5 -9 10 0 6 7 10 16 10 8 0 12 -4 9 -10z
m65 -9 c0 -6 -4 -13 -10 -16 -5 -3 -10 1 -10 9 0 9 5 16 10 16 6 0 10 -4 10
-9z m2070 -9 c0 -13 -12 -22 -22 -16 -10 6 -1 24 13 24 5 0 9 -4 9 -8z m-40
-22 c0 -5 -5 -10 -11 -10 -5 0 -7 5 -4 10 3 6 8 10 11 10 2 0 4 -4 4 -10z
m-1824 -57 c-10 -10 -19 5 -10 18 6 11 8 11 12 0 2 -7 1 -15 -2 -18z m1632
-464 c-2 -6 -8 -10 -13 -10 -5 0 -11 4 -13 10 -2 6 4 11 13 11 9 0 15 -5 13
-11z m-188 -13 c0 -3 -4 -8 -10 -11 -5 -3 -10 -1 -10 4 0 6 5 11 10 11 6 0 10
-2 10 -4z m-1200 -146 c0 -5 -2 -10 -4 -10 -3 0 -8 5 -11 10 -3 6 -1 10 4 10
6 0 11 -4 11 -10z m750 -70 c0 -5 -4 -10 -10 -10 -5 0 -10 5 -10 10 0 6 5 10
10 10 6 0 10 -4 10 -10z m-1232 -53 c2 -12 -3 -17 -17 -17 -12 0 -21 6 -21 13
0 31 32 34 38 4z m782 -42 c0 -8 -6 -15 -14 -15 -17 0 -28 14 -19 24 12 12 33
6 33 -9z m-30 -55 c0 -5 -4 -10 -10 -10 -5 0 -10 5 -10 10 0 6 5 10 10 10 6 0
10 -4 10 -10z"/>
<path d="M620 1515 c0 -31 4 -55 10 -55 6 0 22 -11 35 -25 l25 -24 0 -251 c0
-234 -1 -250 -18 -250 -10 0 -23 5 -30 12 -9 9 -12 1 -12 -38 l0 -49 158 -87
c191 -106 275 -136 331 -120 54 17 86 45 112 100 21 41 23 61 23 162 0 92 -5
128 -23 180 -34 97 -78 168 -146 236 -53 52 -90 75 -263 163 l-202 102 0 -56z
m295 -216 c107 -60 162 -156 172 -301 10 -135 -32 -228 -102 -228 -17 0 -56
12 -86 28 l-54 27 -3 253 c-1 168 1 252 8 252 6 0 35 -14 65 -31z"/>
<path d="M1810 1491 c-25 -10 -106 -48 -180 -83 -108 -52 -136 -69 -136 -85 0
-18 5 -20 38 -16 34 5 38 3 44 -22 7 -29 -4 -598 -12 -618 -2 -7 -20 -22 -39
-35 -21 -13 -35 -30 -35 -42 0 -11 3 -20 8 -20 4 0 71 30 150 67 122 57 142
70 142 90 0 20 -3 21 -26 13 -63 -24 -64 -23 -64 120 l0 129 60 30 c88 44 142
84 190 141 56 67 80 133 80 219 0 62 -3 72 -29 100 -26 28 -35 31 -88 31 -32
-1 -78 -9 -103 -19z m74 -103 c20 -28 21 -126 3 -171 -21 -49 -65 -95 -121
-127 -28 -17 -54 -30 -58 -30 -14 0 -9 306 5 317 21 18 71 31 114 32 32 1 45
-4 57 -21z"/>
</g>
</svg>
